<?xml version="1.0" encoding="UTF-8"?>
<!DOCTYPE svg PUBLIC "-//W3C//DTD SVG 1.1//EN" "http://www.w3.org/Graphics/SVG/1.1/DTD/svg11.dtd">
<svg xmlns="http://www.w3.org/2000/svg" xmlns:xlink="http://www.w3.org/1999/xlink" version="1.1" x="0" y="0" width="150" height="75" viewBox="0, 0, 150, 75">
  <g id="Layer_1">
    <path d="M114.533,47.901 C119.308,47.814 124.675,49.745 124.759,55.299 L124.766,68.28 L117.823,68.205 C117.823,68.205 117.861,67.752 117.823,66.264 C117.802,65.44 116.786,68.603 111.993,68.647 C105.083,68.712 105.132,62.755 105.132,62.755 C105.132,62.755 104.109,53.642 117.816,56.822 C118.062,50.799 108.267,54.394 108.267,54.394 L106.7,49.541 C106.7,49.541 107.836,48.73 111.627,48.123 C112.59,47.983 113.562,47.941 114.533,47.901 z M114.606,58.541 C113.041,58.426 112.758,59.062 111.457,59.543 C110.813,59.851 109.99,59.995 109.682,60.135 C108.8,60.568 107.897,61.842 107.93,62.175 C108.03,62.542 108.368,62.753 108.546,62.819 C108.989,62.899 109.087,62.626 110.981,62.903 C111.004,63.025 111.021,63.033 111.009,63.127 C110.571,63.207 110.342,63.355 110.309,63.519 C110.354,64.117 111.011,63.403 111.515,63.501 C111.515,63.62 111.543,63.879 111.515,63.97 C110.997,63.97 110.836,64.026 110.836,64.026 C110.522,64.222 110.508,64.474 110.546,64.54 C110.634,64.677 111.592,64.425 111.821,64.555 C112.138,64.313 112.502,63.844 113.009,63.672 C113.118,63.704 113.303,63.868 113.893,64.135 C113.807,64.274 113.417,64.471 113.417,64.471 C113.417,64.471 113.107,64.652 113.193,64.947 C113.401,65.254 114.397,64.919 114.397,64.919 C114.397,64.919 114.857,64.918 115.181,64.919 C115.796,64.723 116.86,63.995 117.756,64.667 C118.652,65.339 120.584,67.214 122.599,66.178 C122.823,65.842 122.486,63.938 118.818,63.35 C118.511,62.859 118.455,62.684 118.064,62.147 C117.993,61.858 117.336,58.928 115.013,58.564 L114.606,58.541 z" fill="#000000"/>
    <path d="M92.67,48.155 L92.67,68.257 L99.747,68.257 C99.747,68.257 99.747,62.265 99.747,61.056 C100.105,54.471 106.063,55.233 106.063,55.233 C106.063,55.233 106.197,48.587 106.152,47.878 C101.27,47.394 99.836,52.142 99.792,52.142 C99.747,52.142 99.792,48.2 99.792,48.2 L92.67,48.155 z" fill="#000000"/>
    <path d="M80.889,47.878 C87.049,47.878 92.042,52.528 92.042,58.263 C92.042,63.999 87.049,68.648 80.889,68.648 C74.729,68.648 69.736,63.999 69.736,58.263 C69.736,52.528 74.729,47.878 80.889,47.878 z M80.911,53.665 C78.549,53.665 76.634,55.7 76.634,58.211 C76.634,60.722 78.549,62.758 80.911,62.758 C83.274,62.758 85.189,60.722 85.189,58.211 C85.189,55.7 83.274,53.665 80.911,53.665 z" fill="#000000"/>
    <path d="M55.512,47.878 C57.87,47.877 60.796,48.511 61.95,50.848 L61.95,48.16 L69.117,48.104 L69.089,64.51 C69.089,64.51 69.117,71.201 63.882,73.188 C55.373,76.419 47.588,71.901 47.588,71.901 C47.588,71.901 49.856,67.393 49.856,67.365 C49.856,67.351 54.402,70.151 58.871,68.961 C62.762,67.925 62.136,62.963 62.09,63.334 C61.978,64.23 60.242,65.63 57.415,66.329 C53.522,67.293 46.749,64.62 46.917,57.091 C46.945,55.831 47.517,48.342 55.007,47.899 L55.512,47.878 z M57.989,53.172 C55.693,53.172 53.831,54.933 53.831,57.105 C53.831,59.277 55.693,61.038 57.989,61.038 C60.285,61.038 62.146,59.277 62.146,57.105 C62.146,54.933 60.285,53.172 57.989,53.172 z" fill="#000000"/>
    <path d="M30.454,42.009 L37.397,42.054 L48.461,68.123 L40.712,68.212 L38.92,63.688 L28.887,63.599 L27.095,68.212 L19.391,68.257 L30.454,42.009 z M33.859,50.609 L30.947,57.955 L36.77,58.045 L33.859,50.609 z" fill="#000000"/>
    <path d="M127.299,19.726 C132.074,19.639 137.441,21.57 137.525,27.124 L137.532,40.105 L130.589,40.03 C130.589,40.03 130.627,39.577 130.589,38.089 C130.568,37.265 129.552,40.428 124.759,40.472 C117.849,40.537 117.898,34.58 117.898,34.58 C117.898,34.58 116.875,25.467 130.582,28.647 C130.828,22.625 121.033,26.219 121.033,26.219 L119.466,21.366 C119.466,21.366 120.602,20.555 124.393,19.948 C125.356,19.808 126.328,19.766 127.299,19.726 z M127.715,31.38 C124.893,31.38 124.669,33.574 124.669,33.574 C124.669,33.574 124.087,36.128 127.446,36.083 C131.119,35.948 130.716,31.917 130.716,31.917 C130.716,31.917 129.596,31.514 127.715,31.38 z" fill="#000000"/>
    <path d="M109.603,12.759 L116.681,12.849 L116.636,39.993 L109.558,39.993 L109.558,37.395 C109.559,37.395 107.632,40.351 103.377,40.436 C102.481,40.575 94.687,39.769 94.553,29.825 C94.598,28.526 95.135,19.702 103.332,19.533 C107.498,19.344 109.559,22.166 109.559,22.166 L109.603,12.759 z M105.662,25.256 C103.386,25.256 101.541,27.322 101.541,29.87 C101.541,32.418 103.386,34.484 105.662,34.484 C107.937,34.484 109.782,32.418 109.782,29.87 C109.782,27.322 107.937,25.256 105.662,25.256 z" fill="#000000"/>
    <path d="M83.178,19.726 C87.953,19.639 93.32,21.57 93.404,27.124 L93.411,40.105 L86.468,40.03 C86.468,40.03 86.506,39.577 86.468,38.089 C86.447,37.265 85.431,40.428 80.638,40.472 C73.728,40.537 73.777,34.58 73.777,34.58 C73.777,34.58 72.754,25.467 86.461,28.647 C86.708,22.625 76.912,26.219 76.912,26.219 L75.345,21.366 C75.345,21.366 76.481,20.555 80.272,19.948 C81.235,19.808 82.207,19.766 83.178,19.726 z M83.594,31.38 C80.772,31.38 80.548,33.574 80.548,33.574 C80.548,33.574 79.966,36.128 83.325,36.083 C86.998,35.948 86.595,31.917 86.595,31.917 C86.595,31.917 85.476,31.514 83.594,31.38 z" fill="#000000"/>
    <path d="M52.582,19.723 L52.627,39.903 L59.615,39.948 L59.704,28.078 C59.704,28.078 60.108,25.659 62.571,25.615 C65.034,25.57 65.348,28.123 65.348,28.123 L65.393,39.859 L72.47,39.993 L72.425,25.525 C72.425,25.525 72.291,19.568 65.796,19.532 C61.451,19.568 59.659,22.524 59.659,22.524 C59.659,22.524 59.57,19.723 59.57,19.723 L52.582,19.723 z" fill="#000000"/>
    <path d="M41.122,19.536 C45.898,19.448 51.264,21.379 51.348,26.933 L51.355,39.914 L44.413,39.839 C44.413,39.839 44.45,39.386 44.413,37.898 C44.392,37.074 43.375,40.237 38.582,40.282 C31.673,40.346 31.721,34.389 31.721,34.389 C31.721,34.389 30.699,25.276 44.405,28.456 C44.652,22.434 34.857,26.028 34.857,26.028 L33.289,21.176 C33.289,21.176 34.426,20.364 38.216,19.757 C39.179,19.617 40.151,19.575 41.122,19.536 z M41.539,31.189 C38.717,31.189 38.493,33.383 38.493,33.383 C38.493,33.383 37.91,35.937 41.27,35.892 C44.943,35.758 44.54,31.726 44.54,31.726 C44.54,31.726 43.42,31.323 41.539,31.189 z" fill="#000000"/>
    <path d="M31.199,18.787 L25.824,23.042 C25.824,23.042 24.228,19.926 20.075,19.906 C14.956,19.971 14.041,25.143 14.028,26.252 C14.016,27.361 14.15,32.692 19.777,33.718 C23.36,34.24 26.048,30.806 26.048,30.806 L31.348,34.613 C31.348,34.613 28.063,40.436 19.926,40.436 C18.943,40.396 6.356,40.172 6.563,26.401 C6.58,24.495 7.386,13.386 19.553,13.337 C28.797,13.297 31.199,18.787 31.199,18.787 z" fill="#000000"/>
    <path d="M137.981,0.648 C137.981,0.648 137.393,4.959 137.785,5.295 C138.177,5.631 140.332,5.043 140.332,5.043 C140.332,5.043 136.217,9.914 136.385,10.362 C136.553,10.81 140.22,9.298 140.5,9.158 C140.332,11.762 141.088,11.622 143.44,11.818 C140.332,14.729 140.78,14.757 141.48,15.625 C134.901,16.801 134.957,17.165 134.677,18.985 C132.326,17.053 130.45,15.989 130.45,15.989 L128.462,20.048 L127.482,19.724 L129.666,15.681 C129.666,15.681 125.747,13.889 124.766,13.945 C127.146,12.462 125.803,11.118 123.647,6.331 C125.831,7.226 125.551,3.251 125.607,2.551 C127.622,5.211 128.658,4.483 129.526,3.363 C129.974,5.911 130.534,7.198 130.898,7.478 C131.262,7.758 133.026,1.291 133.026,1.291 C133.026,1.291 133.697,3.027 134.285,3.251 C134.873,3.475 137.981,0.648 137.981,0.648 z M134.537,7.282 L131.178,13.337 L127.958,9.102 L130.926,13.805 L130.226,14.981 L130.646,15.205 L131.206,14.029 L137.309,13.581 L131.514,13.525 L134.537,7.282 z" fill="#FF0000"/>
  </g>
</svg>
