<?xml version="1.0" encoding="UTF-8"?>
<!DOCTYPE svg PUBLIC "-//W3C//DTD SVG 1.1//EN" "http://www.w3.org/Graphics/SVG/1.1/DTD/svg11.dtd">
<svg xmlns="http://www.w3.org/2000/svg" xmlns:xlink="http://www.w3.org/1999/xlink" version="1.1" x="0" y="0" width="512" height="512" viewBox="0, 0, 512, 512">
  <g id="Layer_1">
    <path d="M448,64 L64,64 C28.656,64 0,92.656 0,128 L0,384 C0,419.344 28.656,448 64,448 L448,448 C483.344,448 512,419.344 512,384 L512,128 C512,92.656 483.344,64 448,64 z M342.656,234.781 L478.125,118.687 C479.063,121.687 480,124.687 480,128 L480,384 C480,386.219 479.156,388.188 478.719,390.281 L342.656,234.781 z M448,96 C450.125,96 452,96.813 454,97.219 L256,266.938 L58,97.219 C60,96.813 61.875,96 64,96 L448,96 z M33.266,390.25 C32.828,388.156 32,386.219 32,384 L32,128 C32,124.687 32.953,121.687 33.891,118.687 L169.313,234.75 L33.266,390.25 z M64,416 C60.766,416 57.828,415.062 54.875,414.156 L193.625,255.593 L245.594,300.124 C248.578,302.719 252.297,304 256,304 C259.703,304 263.422,302.719 266.406,300.125 L318.375,255.594 L457.125,414.157 C454.188,415.062 451.25,416 448,416 L64,416 z" fill="#FFFFFF"/>
  </g>
</svg>
