<?xml version="1.0" encoding="UTF-8"?>
<!DOCTYPE svg PUBLIC "-//W3C//DTD SVG 1.1//EN" "http://www.w3.org/Graphics/SVG/1.1/DTD/svg11.dtd">
<svg xmlns="http://www.w3.org/2000/svg" xmlns:xlink="http://www.w3.org/1999/xlink" version="1.1" x="0" y="0" width="300" height="300" viewBox="0, 0, 300, 300">
  <g id="Layer_1">
    <path d="M107.242,57.894 C107.242,56.024 107.502,51.985 108.021,45.803 C108.58,39.609 110.917,33.128 115.112,26.324 C119.268,19.545 126.008,13.454 135.384,8.065 C144.721,2.701 158.214,0 175.824,0 L225.432,0 L225.432,54.063 L189.109,54.063 C185.511,54.063 182.161,55.413 179.135,58.075 C176.135,60.738 174.59,63.27 174.59,65.621 L174.59,99.255 L225.419,99.255 C224.886,105.84 224.302,112.242 223.627,118.423 L221.614,134.76 C220.809,140.28 219.99,145.396 219.185,150.11 L174.226,150.11 L174.226,300 L107.242,300 L107.242,150.097 L74.568,150.097 L74.568,99.255 L107.242,99.255 L107.242,57.894 z" fill="#FFFFFF"/>
  </g>
</svg>
