<?xml version="1.0" encoding="UTF-8"?>
<!DOCTYPE svg PUBLIC "-//W3C//DTD SVG 1.1//EN" "http://www.w3.org/Graphics/SVG/1.1/DTD/svg11.dtd">
<svg xmlns="http://www.w3.org/2000/svg" xmlns:xlink="http://www.w3.org/1999/xlink" version="1.1" x="0" y="0" width="350" height="359" viewBox="0, 0, 350, 359">
  <g id="Layer_1">
    <path d="M298.554,148.137 C250.912,142.678 200.791,175.928 191.362,242.426 C191.033,244.744 190.757,247.111 190.538,249.502 L187.728,249.502 C191.784,204.4 210.455,173.103 221.633,152.288 C236.123,125.308 224.362,98.729 218.636,86.836 C212.14,73.346 182.712,18.819 175.218,0.333 C167.724,18.819 138.516,73.346 132.02,86.836 C126.292,98.729 114.532,125.308 129.022,152.288 C140.125,172.961 158.892,204.604 163.248,249.502 L160.04,249.502 C159.821,247.11 159.545,244.744 159.216,242.426 C149.786,175.927 99.665,142.678 52.024,148.137 C-1.26,154.242 -29.858,238.456 52.52,258.803 C39.121,233.99 59.963,189.326 108.103,214.636 C123.759,222.868 134.664,236.019 139.175,249.502 L131.11,249.502 C123.502,249.502 117.334,253.971 117.334,259.485 C117.334,264.999 123.502,269.468 131.11,269.468 L140.927,269.468 C140.124,273.816 138.471,277.932 135.893,281.63 C124.477,298.007 86.244,289.074 107.583,253.344 C71.518,248.597 61.934,282.623 72.355,300.985 C83.808,324.396 133.834,331.413 152.765,298.007 C157.305,289.995 159.584,279.96 160.32,269.468 L164.184,269.468 C164.151,277.4 163.654,285.692 162.594,294.355 C149.947,302.501 154.877,320.08 138.859,330.589 C148.921,330.854 157.13,328.881 159.779,325.174 C159.779,335.924 169.396,344.986 175.665,358.032 C181.489,344.913 190.873,333.938 190.873,325.174 C193.521,328.881 201.73,330.854 211.793,330.589 C197.106,321.579 202.895,305.073 188.532,293.283 C187.517,284.99 187.024,277.063 186.943,269.468 L190.255,269.468 C190.99,279.96 193.271,289.995 197.81,298.007 C216.741,331.412 266.767,324.396 278.22,300.985 C288.642,282.624 279.058,248.597 242.992,253.344 C264.332,289.074 226.098,298.007 214.682,281.63 C212.105,277.932 210.452,273.816 209.649,269.468 L220.221,269.468 C227.829,269.468 233.997,264.998 233.997,259.485 C233.997,253.97 227.829,249.502 220.221,249.502 L211.4,249.502 C215.912,236.019 226.816,222.868 242.472,214.636 C290.612,189.326 311.454,233.99 298.055,258.803 C380.437,238.457 351.838,154.243 298.554,148.137 z" fill="#FFFFFF"/>
  </g>
</svg>
