<?xml version="1.0" encoding="UTF-8"?>
<!DOCTYPE svg PUBLIC "-//W3C//DTD SVG 1.1//EN" "http://www.w3.org/Graphics/SVG/1.1/DTD/svg11.dtd">
<svg xmlns="http://www.w3.org/2000/svg" xmlns:xlink="http://www.w3.org/1999/xlink" version="1.1" x="0" y="0" width="300" height="300" viewBox="0, 0, 300, 300">
  <g id="Layer_1">
    <path d="M270,0 L30,0 C13.5,0 0,13.5 0,30 L0,270 C0,286.5 13.5,300 30,300 L270,300 C286.5,300 300,286.5 300,270 L300,30 C300,13.5 286.5,0 270,0 z M150,90 C183,90 210,117 210,150 C210,183 183,210 150,210 C117,210 90,183 90,150 C90,117 117,90 150,90 z M37.5,270 C33,270 30,267 30,262.5 L30,135 L61.5,135 C60,139.5 60,145.5 60,150 C60,199.5 100.5,240 150,240 C199.5,240 240,199.5 240,150 C240,145.5 240,139.5 238.5,135 L270,135 L270,262.5 C270,267 267,270 262.5,270 L37.5,270 z M270,67.5 C270,72 267,75 262.5,75 L232.5,75 C228,75 225,72 225,67.5 L225,37.5 C225,33 228,30 232.5,30 L262.5,30 C267,30 270,33 270,37.5 L270,67.5 z" fill="#FFFFFF"/>
  </g>
</svg>
