<?xml version="1.0" encoding="UTF-8"?>
<!DOCTYPE svg PUBLIC "-//W3C//DTD SVG 1.1//EN" "http://www.w3.org/Graphics/SVG/1.1/DTD/svg11.dtd">
<svg xmlns="http://www.w3.org/2000/svg" xmlns:xlink="http://www.w3.org/1999/xlink" version="1.1" x="0" y="0" width="300.003" height="300.003" viewBox="0, 0, 300.003, 300.003">
  <g id="Layer_1">
    <path d="M129.243,198.42 C121.365,239.721 111.744,279.318 83.244,300.003 C74.448,237.576 96.165,190.695 106.248,140.922 C89.058,111.984 108.315,53.736 144.579,68.091 C189.198,85.746 105.936,175.686 161.829,186.924 C220.188,198.648 244.014,85.668 207.825,48.924 C155.541,-4.128 55.626,47.715 67.914,123.672 C70.902,142.245 90.087,147.876 75.579,173.505 C42.117,166.086 32.127,139.695 33.414,104.505 C35.484,46.914 85.164,6.588 134.994,1.011 C198.012,-6.045 257.157,24.144 265.323,83.424 C274.521,150.333 236.883,222.801 169.494,217.587 C151.23,216.168 143.559,207.12 129.243,198.42 z" fill="#FFFFFF"/>
  </g>
</svg>
