<?xml version="1.0" encoding="UTF-8"?>
<!DOCTYPE svg PUBLIC "-//W3C//DTD SVG 1.1//EN" "http://www.w3.org/Graphics/SVG/1.1/DTD/svg11.dtd">
<svg xmlns="http://www.w3.org/2000/svg" xmlns:xlink="http://www.w3.org/1999/xlink" version="1.1" x="0" y="0" width="300" height="300" viewBox="0, 0, 300, 300">
  <g id="Layer_1">
    <path d="M15.916,76.158 C15.916,101.159 24.265,119.208 40.73,129.814 C54.205,138.498 69.86,139.794 77.989,139.794 C79.964,139.794 81.544,139.72 82.652,139.647 C82.652,139.647 80.071,156.44 92.525,173.062 L91.963,173.055 C70.382,173.062 -0,177.568 -0,235.429 C-0,294.302 64.644,297.292 77.611,297.292 C78.625,297.292 79.217,297.271 79.217,297.271 C79.361,297.271 80.289,297.308 81.866,297.308 C90.188,297.308 111.702,296.264 131.679,286.552 C157.591,273.967 170.742,252.092 170.742,221.519 C170.742,191.974 150.715,174.391 136.091,161.538 C127.166,153.711 119.456,146.948 119.456,140.373 C119.456,133.674 125.087,128.639 132.208,122.261 C143.741,111.946 154.608,97.266 154.608,69.515 C154.608,45.119 151.445,28.745 131.957,18.356 C133.989,17.315 141.17,16.559 144.725,16.066 C155.291,14.624 170.742,12.986 170.742,4.362 L170.742,2.695 L93.761,2.695 C92.987,2.715 15.916,5.571 15.916,76.158 z M140.179,227.026 C141.649,250.572 121.511,267.944 91.277,270.144 C60.563,272.387 35.277,258.56 33.807,235.048 C33.094,223.752 38.062,212.671 47.788,203.859 C57.654,194.923 71.196,189.416 85.93,188.328 C87.671,188.218 89.395,188.147 91.116,188.147 C119.536,188.147 138.786,204.85 140.179,227.026 z M120.078,60.048 C127.631,86.61 116.228,114.38 98.056,119.502 C95.97,120.088 93.804,120.39 91.621,120.39 C74.972,120.39 58.477,103.547 52.368,80.349 C48.953,67.312 49.227,55.923 53.144,44.969 C56.994,34.192 63.908,26.914 72.609,24.466 C74.701,23.874 76.871,23.572 79.05,23.572 C99.154,23.569 112.077,31.905 120.078,60.048 z M249.782,117.896 L249.782,67.677 L217.977,67.677 L217.977,117.896 L167.759,117.896 L167.759,149.7 L217.977,149.7 L217.977,199.919 L249.782,199.919 L249.782,149.7 L300,149.7 L300,117.896 L249.782,117.896 z" fill="#FFFFFF"/>
  </g>
</svg>
