<?xml version="1.0" encoding="UTF-8"?>
<!DOCTYPE svg PUBLIC "-//W3C//DTD SVG 1.1//EN" "http://www.w3.org/Graphics/SVG/1.1/DTD/svg11.dtd">
<svg xmlns="http://www.w3.org/2000/svg" xmlns:xlink="http://www.w3.org/1999/xlink" version="1.1" x="0" y="0" width="559.372" height="559.372" viewBox="0, 0, 559.372, 559.372">
  <g id="Layer_1">
    <path d="M53.244,0.002 C99.756,0.002 144.534,6.02 187.578,18.056 C230.622,30.092 270.912,47.126 308.447,69.158 C345.984,91.19 380.154,117.608 410.961,148.412 C441.764,179.216 468.182,213.386 490.215,250.922 C512.244,288.461 529.278,328.75 541.317,371.795 C553.354,414.838 559.372,459.613 559.372,506.129 C559.372,520.817 554.171,533.359 543.767,543.766 C533.363,554.173 520.818,559.37 506.13,559.37 C491.441,559.37 478.896,554.171 468.489,543.766 C458.087,533.362 452.885,520.817 452.885,506.129 C452.885,469.406 448.09,434.014 438.502,399.943 C428.914,365.879 415.447,334.052 398.107,304.472 C380.767,274.891 359.962,247.963 335.683,223.687 C311.406,199.411 284.48,178.603 254.899,161.263 C225.319,143.923 193.495,130.459 159.427,120.871 C125.359,111.283 89.965,106.489 53.245,106.489 C38.557,106.489 26.011,101.287 15.607,90.883 C5.203,80.479 0.001,67.933 0.001,53.245 C0.001,38.557 5.203,26.011 15.607,15.607 C26.01,5.204 38.556,0.002 53.244,0.002 z M53.244,201.35 C95.268,201.35 134.742,209.408 171.666,225.524 C208.59,241.64 240.822,263.468 268.362,291.008 C295.903,318.549 317.731,350.779 333.846,387.701 C349.963,424.629 358.02,464.099 358.02,506.127 C358.02,520.815 352.819,533.357 342.416,543.764 C332.012,554.168 319.467,559.368 304.775,559.368 C290.087,559.368 277.542,554.169 267.138,543.764 C256.734,533.36 251.532,520.815 251.532,506.127 C251.532,478.789 246.33,453.086 235.926,429.014 C225.522,404.942 211.344,383.93 193.392,365.979 C175.44,348.026 154.428,333.848 130.356,323.444 C106.284,313.042 80.58,307.84 53.244,307.84 C38.556,307.84 26.01,302.639 15.606,292.235 C5.202,281.83 -0,269.284 -0,254.596 C-0,239.908 5.202,227.362 15.606,216.958 C26.01,206.552 38.556,201.35 53.244,201.35 z M151.164,481.033 C151.164,491.642 149.226,501.433 145.35,510.41 C141.474,519.389 136.17,527.24 129.438,533.973 C122.706,540.702 114.75,546.008 105.57,549.885 C96.39,553.76 86.7,555.696 76.5,555.696 C65.892,555.696 56.1,553.758 47.124,549.885 C38.148,546.01 30.294,540.701 23.562,533.973 C16.83,527.241 11.526,519.387 7.65,510.41 C3.774,501.433 1.836,491.642 1.836,481.033 C1.836,470.836 3.774,461.144 7.65,451.967 C11.526,442.783 16.83,434.828 23.562,428.098 C30.294,421.366 38.148,416.063 47.124,412.186 C56.1,408.311 65.892,406.372 76.5,406.372 C86.7,406.372 96.39,408.311 105.57,412.186 C114.75,416.063 122.706,421.366 129.438,428.098 C136.17,434.828 141.474,442.786 145.35,451.967 C149.226,461.145 151.164,470.834 151.164,481.033 z" fill="#FFFFFF"/>
  </g>
</svg>
