<?xml version="1.0" encoding="UTF-8"?>
<!DOCTYPE svg PUBLIC "-//W3C//DTD SVG 1.1//EN" "http://www.w3.org/Graphics/SVG/1.1/DTD/svg11.dtd">
<svg xmlns="http://www.w3.org/2000/svg" xmlns:xlink="http://www.w3.org/1999/xlink" version="1.1" x="0" y="0" width="20" height="20.016" viewBox="0, 0, 20, 20.016">
  <g id="Layer_1">
    <path d="M0,14.925 L0,14.926 C0.012,15.37 0.016,15.817 0.091,16.259 C0.17,16.726 0.284,17.181 0.5,17.605 C0.793,18.179 1.195,18.664 1.703,19.06 C2.067,19.344 2.465,19.57 2.906,19.712 C3.549,19.92 4.212,19.999 4.885,20.003 C5.304,20.005 5.724,20.016 6.144,20.014 C9.193,20.001 12.242,20.036 15.291,19.995 C15.696,19.99 16.094,19.941 16.491,19.868 C17.252,19.729 17.925,19.404 18.5,18.89 C19.171,18.292 19.623,17.56 19.828,16.676 C19.961,16.099 19.995,15.513 20,14.925 L20,14.808 C20,14.762 19.983,4.816 19.982,4.685 C19.977,4.323 19.95,3.965 19.883,3.61 C19.8,3.177 19.684,2.755 19.477,2.363 C19.258,1.949 18.984,1.577 18.644,1.252 C18.125,0.754 17.525,0.401 16.827,0.215 C16.197,0.047 15.553,0.009 14.906,0.01 C14.905,0.01 14.902,0.003 14.902,-0 L5.095,-0 C5.095,0.003 5.095,0.007 5.095,0.01 C4.727,0.017 4.359,0.014 3.993,0.059 C3.592,0.109 3.195,0.184 2.816,0.324 C2.219,0.545 1.699,0.889 1.256,1.349 C0.754,1.87 0.399,2.472 0.212,3.173 C0.044,3.798 0.007,4.436 0.007,5.079" fill="#FFFC00"/>
    <path d="M10.091,16.888 C10.049,16.888 10.01,16.886 9.98,16.885 C9.956,16.887 9.931,16.888 9.906,16.888 C9.034,16.888 8.45,16.475 7.935,16.111 C7.566,15.85 7.218,15.604 6.81,15.536 C6.61,15.503 6.411,15.486 6.218,15.486 C5.872,15.486 5.597,15.54 5.397,15.579 C5.274,15.603 5.168,15.624 5.086,15.624 C5,15.624 4.896,15.605 4.852,15.456 C4.818,15.339 4.793,15.225 4.769,15.116 C4.709,14.843 4.666,14.676 4.564,14.66 C3.469,14.491 2.822,14.242 2.694,13.941 C2.68,13.909 2.672,13.878 2.671,13.846 C2.666,13.756 2.729,13.678 2.818,13.663 C3.687,13.52 4.46,13.06 5.115,12.297 C5.622,11.706 5.872,11.141 5.898,11.079 C5.9,11.076 5.901,11.073 5.902,11.071 C6.029,10.814 6.054,10.593 5.977,10.413 C5.836,10.08 5.369,9.932 5.06,9.834 C4.983,9.809 4.911,9.786 4.853,9.763 C4.579,9.655 4.128,9.427 4.188,9.111 C4.232,8.881 4.536,8.721 4.782,8.721 C4.851,8.721 4.911,8.733 4.962,8.757 C5.24,8.887 5.49,8.953 5.705,8.953 C5.973,8.953 6.102,8.851 6.133,8.822 C6.125,8.679 6.116,8.529 6.107,8.386 C6.107,8.386 6.107,8.384 6.107,8.384 C6.044,7.385 5.965,6.143 6.283,5.43 C7.235,3.297 9.252,3.131 9.848,3.131 C9.864,3.131 10.108,3.129 10.108,3.129 C10.119,3.128 10.131,3.128 10.143,3.128 C10.74,3.128 12.762,3.294 13.714,5.429 C14.032,6.142 13.953,7.386 13.891,8.385 L13.888,8.433 C13.879,8.569 13.871,8.697 13.864,8.822 C13.894,8.849 14.012,8.942 14.252,8.952 C14.457,8.944 14.693,8.878 14.952,8.757 C15.033,8.719 15.121,8.711 15.182,8.711 C15.273,8.711 15.365,8.729 15.443,8.761 L15.447,8.763 C15.667,8.841 15.811,8.997 15.814,9.161 C15.817,9.314 15.703,9.543 15.144,9.764 C15.087,9.786 15.014,9.809 14.937,9.834 C14.628,9.932 14.161,10.08 14.02,10.413 C13.943,10.593 13.969,10.814 14.095,11.07 C14.096,11.073 14.097,11.076 14.099,11.079 C14.138,11.17 15.079,13.317 17.18,13.663 C17.268,13.677 17.332,13.756 17.327,13.846 C17.325,13.878 17.317,13.91 17.303,13.942 C17.175,14.241 16.529,14.49 15.434,14.659 C15.331,14.675 15.288,14.841 15.229,15.113 C15.204,15.225 15.179,15.335 15.145,15.451 C15.113,15.56 15.042,15.613 14.929,15.613 L14.911,15.613 C14.837,15.613 14.732,15.599 14.6,15.573 C14.369,15.528 14.109,15.486 13.779,15.486 C13.587,15.486 13.387,15.503 13.187,15.536 C12.78,15.604 12.432,15.85 12.063,16.11 C11.547,16.475 10.964,16.888 10.091,16.888" fill="#FFFFFF"/>
    <path d="M10.143,3.304 C10.705,3.304 12.641,3.455 13.553,5.5 C13.854,6.174 13.777,7.394 13.715,8.374 C13.705,8.53 13.696,8.68 13.688,8.824 L13.685,8.886 L13.726,8.932 C13.743,8.951 13.899,9.114 14.246,9.127 L14.252,9.128 L14.258,9.128 C14.487,9.119 14.746,9.048 15.027,8.916 C15.068,8.897 15.123,8.887 15.182,8.887 C15.248,8.887 15.319,8.9 15.377,8.924 L15.385,8.928 C15.533,8.979 15.637,9.077 15.638,9.165 C15.639,9.214 15.602,9.394 15.08,9.6 C15.029,9.62 14.962,9.642 14.884,9.666 C14.544,9.774 14.031,9.937 13.858,10.344 C13.761,10.573 13.787,10.844 13.937,11.148 C13.999,11.292 14.969,13.477 17.151,13.836 C17.151,13.846 17.148,13.858 17.142,13.871 C17.105,13.958 16.87,14.259 15.407,14.485 C15.178,14.52 15.122,14.777 15.057,15.075 C15.033,15.182 15.01,15.29 14.977,15.401 C14.967,15.435 14.965,15.437 14.929,15.437 C14.924,15.437 14.918,15.437 14.912,15.437 C14.847,15.437 14.748,15.423 14.634,15.401 C14.426,15.36 14.142,15.311 13.779,15.311 C13.576,15.311 13.368,15.328 13.158,15.363 C12.711,15.438 12.347,15.695 11.961,15.968 C11.443,16.334 10.908,16.712 10.091,16.712 C10.056,16.712 10.021,16.711 9.986,16.709 L9.977,16.709 L9.967,16.71 C9.947,16.711 9.927,16.712 9.907,16.712 C9.09,16.712 8.555,16.334 8.037,15.968 C7.651,15.695 7.287,15.438 6.84,15.363 C6.63,15.328 6.421,15.311 6.219,15.311 C5.856,15.311 5.571,15.366 5.364,15.407 C5.25,15.429 5.151,15.448 5.086,15.448 C5.033,15.448 5.032,15.445 5.021,15.407 C4.988,15.295 4.964,15.185 4.941,15.078 C4.876,14.78 4.82,14.522 4.591,14.486 C3.128,14.261 2.893,13.959 2.856,13.872 C2.85,13.858 2.847,13.847 2.847,13.836 C5.029,13.477 5.999,11.292 6.06,11.148 C6.21,10.844 6.237,10.573 6.14,10.344 C5.967,9.937 5.454,9.774 5.114,9.666 C5.036,9.642 4.969,9.62 4.918,9.6 C4.477,9.426 4.341,9.25 4.361,9.144 C4.385,9.021 4.597,8.897 4.783,8.897 C4.824,8.897 4.861,8.903 4.888,8.916 C5.189,9.057 5.464,9.129 5.706,9.129 C6.085,9.129 6.254,8.952 6.272,8.932 L6.313,8.886 L6.31,8.825 C6.302,8.681 6.293,8.53 6.283,8.375 C6.221,7.395 6.144,6.175 6.444,5.502 C7.353,3.464 9.28,3.307 9.848,3.307 C9.862,3.307 10.11,3.304 10.11,3.304 C10.12,3.304 10.131,3.304 10.143,3.304 M10.143,2.952 L10.142,2.952 C10.129,2.952 10.117,2.952 10.105,2.953 C10.013,2.954 9.861,2.955 9.848,2.955 C9.514,2.955 8.848,3.002 8.132,3.318 C7.722,3.499 7.354,3.743 7.037,4.044 C6.659,4.403 6.352,4.845 6.123,5.359 C5.787,6.111 5.867,7.377 5.931,8.395 L5.931,8.397 C5.938,8.506 5.945,8.62 5.952,8.731 C5.903,8.753 5.823,8.777 5.705,8.777 C5.516,8.777 5.291,8.717 5.037,8.597 C4.962,8.563 4.877,8.545 4.782,8.545 C4.631,8.545 4.471,8.59 4.333,8.671 C4.159,8.773 4.046,8.918 4.015,9.078 C3.995,9.184 3.996,9.394 4.229,9.606 C4.357,9.723 4.545,9.831 4.788,9.927 C4.852,9.952 4.927,9.976 5.007,10.001 C5.285,10.09 5.706,10.223 5.816,10.481 C5.871,10.612 5.847,10.784 5.745,10.993 C5.742,10.998 5.739,11.004 5.737,11.01 C5.711,11.07 5.472,11.611 4.982,12.182 C4.703,12.507 4.396,12.779 4.07,12.99 C3.671,13.247 3.241,13.415 2.789,13.49 C2.612,13.519 2.485,13.677 2.495,13.856 C2.498,13.908 2.51,13.959 2.531,14.009 C2.531,14.01 2.532,14.01 2.532,14.01 C2.604,14.178 2.77,14.32 3.04,14.446 C3.37,14.599 3.864,14.728 4.507,14.829 C4.54,14.891 4.574,15.046 4.597,15.153 C4.622,15.266 4.647,15.382 4.683,15.506 C4.723,15.64 4.824,15.8 5.086,15.8 C5.185,15.8 5.299,15.777 5.431,15.752 C5.624,15.714 5.889,15.662 6.218,15.662 C6.401,15.662 6.591,15.678 6.782,15.71 C7.149,15.771 7.466,15.995 7.833,16.254 C8.37,16.634 8.978,17.063 9.906,17.063 C9.932,17.063 9.957,17.063 9.982,17.061 C10.013,17.062 10.051,17.063 10.091,17.063 C11.02,17.063 11.627,16.634 12.164,16.254 L12.164,16.254 C12.531,15.995 12.848,15.771 13.216,15.71 C13.406,15.678 13.596,15.662 13.779,15.662 C14.094,15.662 14.343,15.702 14.566,15.746 C14.712,15.774 14.825,15.788 14.911,15.788 L14.92,15.788 L14.929,15.788 C15.12,15.788 15.26,15.683 15.314,15.5 C15.35,15.379 15.375,15.265 15.4,15.15 C15.422,15.05 15.457,14.89 15.489,14.828 C16.133,14.727 16.627,14.598 16.957,14.445 C17.227,14.32 17.393,14.177 17.465,14.01 C17.486,13.96 17.499,13.909 17.502,13.856 C17.512,13.677 17.385,13.518 17.208,13.489 C15.202,13.159 14.298,11.097 14.26,11.009 C14.258,11.004 14.255,10.998 14.252,10.992 C14.15,10.784 14.126,10.612 14.182,10.481 C14.291,10.223 14.712,10.09 14.99,10.001 C15.07,9.976 15.146,9.952 15.209,9.927 C15.483,9.819 15.679,9.701 15.808,9.568 C15.962,9.409 15.992,9.257 15.99,9.158 C15.985,8.917 15.801,8.703 15.508,8.598 C15.409,8.557 15.296,8.535 15.182,8.535 C15.103,8.535 14.988,8.546 14.878,8.597 C14.643,8.707 14.433,8.767 14.252,8.776 C14.156,8.771 14.089,8.75 14.046,8.73 C14.051,8.636 14.057,8.54 14.063,8.439 L14.066,8.396 C14.13,7.377 14.21,6.11 13.875,5.357 C13.645,4.842 13.336,4.398 12.957,4.039 C12.638,3.738 12.269,3.494 11.858,3.313 C11.143,2.999 10.476,2.952 10.143,2.952" fill="#020202"/>
  </g>
</svg>
