<?xml version="1.0" encoding="UTF-8"?>
<!DOCTYPE svg PUBLIC "-//W3C//DTD SVG 1.1//EN" "http://www.w3.org/Graphics/SVG/1.1/DTD/svg11.dtd">
<svg xmlns="http://www.w3.org/2000/svg" xmlns:xlink="http://www.w3.org/1999/xlink" version="1.1" x="0" y="0" width="533.333" height="533.334" viewBox="0, 0, 533.333, 533.334">
  <g id="Layer_1">
    <path d="M433.333,66.667 L100,66.667 C45,66.667 -0,111.667 -0,166.667 L-0,366.667 C-0,421.666 45,466.667 100,466.667 L433.333,466.667 C488.332,466.667 533.333,421.666 533.333,366.667 L533.333,166.667 C533.333,111.667 488.333,66.667 433.333,66.667 z M500,366.667 C500,384.363 493.034,401.074 480.389,413.722 C467.742,426.368 451.033,433.333 433.334,433.333 L100,433.333 C82.303,433.333 65.593,426.367 52.946,413.722 C40.299,401.075 33.333,384.364 33.333,366.667 L33.333,166.667 C33.333,148.97 40.299,132.26 52.946,119.613 C65.593,106.966 82.303,100 100,100 L433.333,100 C451.03,100 467.74,106.966 480.388,119.613 C493.036,132.259 500,148.97 500,166.667 L500,366.667 z M200,400 L366.667,266.667 L200,133.333 L200,400 z" fill="#FFFFFF"/>
  </g>
</svg>
